{
  "asset": {
    "version": "2.0",
    "generator": "campus-portal e2e fixture — 两个具名材质（Body / Trim），用于「按材质名覆盖」的多材质用例；craft-001 的模型只有一个材质，测不出切换材质相关的回归"
  },
  "scene": 0,
  "scenes": [
    {
      "nodes": [
        0,
        1
      ]
    }
  ],
  "nodes": [
    {
      "mesh": 0
    },
    {
      "mesh": 1
    }
  ],
  "meshes": [
    {
      "name": "BodyMesh",
      "primitives": [
        {
          "attributes": {
            "POSITION": 0
          },
          "material": 0
        }
      ]
    },
    {
      "name": "TrimMesh",
      "primitives": [
        {
          "attributes": {
            "POSITION": 1
          },
          "material": 1
        }
      ]
    }
  ],
  "materials": [
    {
      "name": "Body",
      "pbrMetallicRoughness": {
        "baseColorFactor": [
          0.8,
          0.7,
          0.5,
          1
        ],
        "metallicFactor": 0.1,
        "roughnessFactor": 0.6
      }
    },
    {
      "name": "Trim",
      "pbrMetallicRoughness": {
        "baseColorFactor": [
          0.3,
          0.3,
          0.35,
          1
        ],
        "metallicFactor": 0.9,
        "roughnessFactor": 0.2
      }
    }
  ],
  "accessors": [
    {
      "bufferView": 0,
      "componentType": 5126,
      "count": 3,
      "type": "VEC3",
      "min": [
        0,
        0,
        0
      ],
      "max": [
        1,
        1,
        0
      ]
    },
    {
      "bufferView": 1,
      "componentType": 5126,
      "count": 3,
      "type": "VEC3",
      "min": [
        0,
        0,
        1
      ],
      "max": [
        1,
        1,
        1
      ]
    }
  ],
  "bufferViews": [
    {
      "buffer": 0,
      "byteOffset": 0,
      "byteLength": 36
    },
    {
      "buffer": 0,
      "byteOffset": 36,
      "byteLength": 36
    }
  ],
  "buffers": [
    {
      "byteLength": 72,
      "uri": "data:application/octet-stream;base64,"
    }
  ]
}